<?xml version="1.0" encoding="UTF-8" standalone="no"?>
<svg
   xmlns:osb="http://www.openswatchbook.org/uri/2009/osb"
   xmlns:dc="http://purl.org/dc/elements/1.1/"
   xmlns:cc="http://creativecommons.org/ns#"
   xmlns:rdf="http://www.w3.org/1999/02/22-rdf-syntax-ns#"
   xmlns:svg="http://www.w3.org/2000/svg"
   xmlns="http://www.w3.org/2000/svg"
   xmlns:sodipodi="http://sodipodi.sourceforge.net/DTD/sodipodi-0.dtd"
   xmlns:inkscape="http://www.inkscape.org/namespaces/inkscape"
   sodipodi:docname="Logo.svg"
   inkscape:version="1.0 (4035a4fb49, 2020-05-01)"
   id="svg8"
   version="1.1"
   viewBox="0 0 200 200"
   height="200mm"
   width="200mm">
  <defs
     id="defs2">
    <linearGradient
       osb:paint="solid"
       id="linearGradient877">
      <stop
         id="stop875"
         offset="0"
         style="stop-color:#000000;stop-opacity:1;" />
    </linearGradient>
  </defs>
  <sodipodi:namedview
     inkscape:window-maximized="0"
     inkscape:window-y="0"
     inkscape:window-x="551"
     inkscape:window-height="1041"
     inkscape:window-width="1274"
     showgrid="false"
     inkscape:document-rotation="0"
     inkscape:current-layer="layer1"
     inkscape:document-units="mm"
     inkscape:cy="499.79948"
     inkscape:cx="340.84832"
     inkscape:zoom="0.5"
     inkscape:pageshadow="2"
     inkscape:pageopacity="0.0"
     borderopacity="1.0"
     bordercolor="#666666"
     pagecolor="#ffffff"
     id="base" />
  <metadata
     id="metadata5">
    <rdf:RDF>
      <cc:Work
         rdf:about="">
        <dc:format>image/svg+xml</dc:format>
        <dc:type
           rdf:resource="http://purl.org/dc/dcmitype/StillImage" />
        <dc:title></dc:title>
      </cc:Work>
    </rdf:RDF>
  </metadata>
  <g
     id="layer1"
     inkscape:groupmode="layer"
     inkscape:label="Layer 1">
    <g
       style="fill:#000000;fill-opacity:1;fill-rule:nonzero"
       id="g873">
      <g
         aria-label="V"
         transform="rotate(180,0,0.52916666)"
         id="text842"
         style="font-style:normal;font-weight:normal;font-size:10.5833px;line-height:1.25;font-family:sans-serif;fill:#000000;fill-opacity:1;fill-rule:nonzero;stroke:none;stroke-width:0.264583" />
    </g>
    <rect
       style="opacity:0.993;fill:#ffffff;stroke-width:0.178855"
       id="rect847"
       width="197.53415"
       height="195.92395"
       x="1.3922309"
       y="2.0089636"
       rx="0.84335935"
       ry="0.84335929" />
    <g
       transform="matrix(21.693489,0,0,21.693489,-1849.8091,-2408.0245)"
       style="fill:#333333;fill-opacity:1"
       id="g2962">
      <g
         aria-label="V"
         transform="rotate(180,89.810865,0)"
         id="text835"
         style="font-style:normal;font-weight:normal;font-size:7.56604px;line-height:1.25;font-family:sans-serif;fill:#333333;fill-opacity:1;stroke:none;stroke-width:0.189151">
        <path
           d="m 89.236385,-117.97763 v 0.18102 q -0.169941,0.0296 -0.258605,0.0739 -0.08866,0.0443 -0.132997,0.12561 -0.04433,0.0813 -0.04433,0.21796 0,0.12561 0.02955,0.27339 0.02956,0.14408 0.08497,0.3251 l 0.864479,3.01459 1.06028,-3.03676 q 0.02217,-0.0702 0.04433,-0.14777 0.02217,-0.0776 0.03694,-0.15147 0.01847,-0.0739 0.02217,-0.1293 0.0074,-0.0554 0.0074,-0.10344 0,-0.22167 -0.103441,-0.32141 -0.09975,-0.10345 -0.343576,-0.14039 v -0.18102 h 1.55163 v 0.18102 q -0.151469,0.0369 -0.243828,0.10714 -0.09236,0.0702 -0.184717,0.22535 -0.08866,0.15517 -0.217967,0.49505 l -1.533158,4.09334 h -0.483961 l -1.244997,-4.1192 q -0.09975,-0.33619 -0.173635,-0.47658 -0.07389,-0.14408 -0.162552,-0.21427 -0.08866,-0.0739 -0.243827,-0.11083 v -0.18102 z"
           style="font-style:normal;font-variant:normal;font-weight:normal;font-stretch:normal;font-family:'Cambria Math';-inkscape-font-specification:'Cambria Math';fill:#333333;fill-opacity:1;stroke-width:0.189151"
           id="path2838" />
      </g>
      <path
         id="path2832"
         style="opacity:0.993;fill:#333333;fill-opacity:1;fill-rule:nonzero;stroke-width:0.153571"
         d="m 89.419725,116.97411 a 1.0056016,1.0056016 0 0 0 1.005601,1.00561 1.0056016,1.0056016 0 0 0 1.005602,-1.00561 1.0056016,1.0056016 0 0 0 -1.005602,-1.0056 1.0056016,1.0056016 0 0 0 -1.005601,1.0056 z" />
    </g>
    <path
       d="m 112.28351,112.43696 c 9.53942,0 17.2192,7.67949 17.2192,17.2192 0,9.5395 -7.67978,17.21921 -17.2192,17.21921 -9.53946,0 -17.21923,-7.67971 -17.21923,-17.21921 0,-9.53971 7.67977,-17.2192 17.21923,-17.2192 z"
       style="opacity:0.993;fill:#ffffff;fill-opacity:1;fill-rule:nonzero;stroke-width:2.04174"
       id="rect2950" />
  </g>
</svg>
